<svg width="512" height="512" viewBox="0 0 512 512" fill="none" xmlns="http://www.w3.org/2000/svg">
<g clip-path="url(#clip0_47_150)">
<rect width="512" height="512" rx="256" fill="#11111B"/>
<line x1="1.05567e-07" y1="167" x2="512" y2="167" stroke="#45475A" stroke-width="2" stroke-dasharray="5 5"/>
<line x1="1.05567e-07" y1="343" x2="512" y2="343" stroke="#45475A" stroke-width="2" stroke-dasharray="5 5"/>
<line x1="1.05567e-07" y1="212" x2="512" y2="212" stroke="#45475A" stroke-width="2" stroke-dasharray="5 5"/>
<line x1="129" y1="5.27836e-08" x2="129" y2="512" stroke="#45475A" stroke-width="2" stroke-dasharray="5 5"/>
<line x1="237" y1="5.27836e-08" x2="237" y2="512" stroke="#45475A" stroke-width="2" stroke-dasharray="5 5"/>
<line x1="279" y1="5.27836e-08" x2="279" y2="512" stroke="#45475A" stroke-width="2" stroke-dasharray="5 5"/>
<line x1="386" y1="5.27836e-08" x2="386" y2="512" stroke="#45475A" stroke-width="2" stroke-dasharray="5 5"/>
<path d="M278 344V211.989H297.072L297.815 245.614L295.338 243.373C296.989 235.568 299.961 229.175 304.255 224.194C308.713 219.046 313.997 215.227 320.106 212.736C326.216 210.245 332.656 209 339.426 209C349.498 209 357.837 211.242 364.442 215.725C371.212 220.208 376.331 226.269 379.799 233.908C383.266 241.38 385 249.766 385 259.065V344H364.194V265.042C364.194 252.755 361.8 243.456 357.012 237.146C352.223 230.67 344.875 227.432 334.968 227.432C328.198 227.432 322.088 228.926 316.639 231.915C311.19 234.738 306.814 238.972 303.512 244.618C300.374 250.098 298.806 256.906 298.806 265.042V344H278Z" fill="#CBA6F7"/>
<path d="M128 344V323.059H171.848V187.941H128V167H237V187.941H193.152V323.059H237V344H128Z" fill="#CBA6F7"/>
</g>
<defs>
<clipPath id="clip0_47_150">
<rect width="512" height="512" rx="256" fill="white"/>
</clipPath>
</defs>
</svg>
